<?xml version="1.0" encoding="utf-8"?>
<!-- Generator: Adobe Illustrator 25.2.0, SVG Export Plug-In . SVG Version: 6.00 Build 0)  -->
<svg version="1.1" xmlns="http://www.w3.org/2000/svg" xmlns:xlink="http://www.w3.org/1999/xlink" x="0px" y="0px"
	 viewBox="0 0 512 512" style="enable-background:new 0 0 512 512;" xml:space="preserve">
<style type="text/css">
	.st0{fill:none;stroke:#000000;stroke-width:8;stroke-linejoin:round;stroke-miterlimit:10;}
</style>
<g id="Layer_1">
</g>
<g id="Layer_2">
	<g>
		<g>
			<g>
				<g>
					<path class="st0" d="M48.3,506l337.2,0c21.6,0,39.1-17.5,39.1-39.1"/>
					<path class="st0" d="M464.6,6H126.6c-21.6,0-39.1,17.5-39.1,39.1v422.6"/>
				</g>
			</g>
		</g>
		<g>
			<g>
				<g>
					<path class="st0" d="M84.9,506L84.9,506"/>
				</g>
			</g>
		</g>
		<path class="st0" d="M84.9,506"/>
		<path class="st0" d="M48.3,506L48.3,506c-21.6,0-39.1-17.5-39.1-39.1h337.2c0,21.6,17.5,39.1,39.1,39.1h0
			c21.6,0,39.1-17.5,39.1-39.1h0V45.1c0-21.6,17.5-39.1,39.1-39.1h0c21.6,0,39.1,17.5,39.1,39.1h-78.3"/>
		<path class="st0" d="M87.4,466.9L87.4,466.9"/>
	</g>
	<rect x="129.8" y="79.7" class="st0" width="91.7" height="91.7"/>
	<line class="st0" x1="256" y1="107.8" x2="379.1" y2="107.8"/>
	<line class="st0" x1="256" y1="165.6" x2="379.1" y2="165.6"/>
	<line class="st0" x1="306" y1="223.4" x2="379.1" y2="223.4"/>
	<line class="st0" x1="256" y1="281.2" x2="379.1" y2="281.2"/>
	<line class="st0" x1="216" y1="339" x2="379.1" y2="339"/>
	<line class="st0" x1="276" y1="396.8" x2="379.1" y2="396.8"/>
	<line class="st0" x1="129.8" y1="223.4" x2="282.9" y2="223.4"/>
	<line class="st0" x1="129.8" y1="281.2" x2="232.9" y2="281.2"/>
	<line class="st0" x1="129.8" y1="339" x2="192.9" y2="339"/>
	<line class="st0" x1="129.8" y1="396.8" x2="252.9" y2="396.8"/>
</g>
<g id="Layer_3">
</g>
</svg>
